<svg width="29" height="45" viewBox="0 0 29 45" fill="none" xmlns="http://www.w3.org/2000/svg">
<path d="M25.1651 34.6744L25.1567 34.6828C25.1368 34.7025 25.1267 34.722 25.1137 34.7481L25.1129 34.7497C25.0999 34.7756 25.0838 34.8078 25.0521 34.8396L19.8194 40.0723L19.8193 40.0724L19.7839 40.037L25.1651 34.6744ZM25.1651 34.6744L25.1689 34.6631M25.1651 34.6744L25.1689 34.6631M25.1689 34.6631L25.1689 34.663L25.169 34.6629L25.1691 34.6625L25.1695 34.6611L25.1713 34.6559L25.1773 34.637C25.1823 34.6211 25.189 34.5994 25.1956 34.576C25.2023 34.5526 25.2091 34.5271 25.2143 34.5037C25.2192 34.4814 25.2237 34.4571 25.2237 34.4381V34.386V34.3859L25.2758 7.27773L27.74 7.27738V42.865L1.36209 42.8647L1.36229 7.27724H3.93092L25.1689 34.6631ZM0.374177 43.8525C0.468229 43.9465 0.597761 44.0016 0.748984 44.0098L0.749322 44.0113H0.788894H28.3134C28.4817 44.0113 28.6259 43.955 28.7282 43.8528C28.8304 43.7505 28.8868 43.6063 28.8868 43.4378L28.8864 6.70362C28.8864 6.53531 28.8302 6.3911 28.7279 6.28884C28.6257 6.18658 28.4815 6.13019 28.313 6.13019L22.6998 6.13056C22.3649 4.974 21.2018 4.142 19.8364 4.142H18.362C18.079 2.35981 16.5509 0.95 14.6562 0.95C12.7614 0.95 11.2334 2.35981 10.9504 4.142H9.47599C8.11043 4.142 6.94739 4.97399 6.61259 6.13056H0.788809C0.620501 6.13056 0.476292 6.18685 0.374032 6.28905C0.271768 6.39127 0.215381 6.53548 0.215381 6.70399L0.215381 43.4382L0.215381 43.4382C0.215577 43.6064 0.271971 43.7504 0.374177 43.8525ZM19.9909 35.0107L23.2736 35.011L19.9909 38.2937V35.0107ZM24.1817 7.22469L24.1296 33.812H19.4701C19.3018 33.812 19.1576 33.8683 19.0554 33.9705C18.9531 34.0727 18.8967 34.2169 18.8967 34.3854V39.0447H5.07749V7.22469H6.49482V10.0002C6.49482 10.1685 6.5511 10.3127 6.65331 10.415C6.75553 10.5172 6.89974 10.5736 7.06824 10.5736H22.191C22.3593 10.5736 22.5035 10.5173 22.6058 10.4151C22.7081 10.3129 22.7644 10.1687 22.7644 10.0002V7.22469H24.1817ZM7.64154 6.75601C7.64154 6.756 7.64154 6.756 7.64154 6.756C7.64155 5.95494 8.44696 5.28868 9.42321 5.28868H11.464C11.6323 5.28868 11.7765 5.2324 11.8788 5.13019C11.981 5.02797 12.0374 4.88376 12.0374 4.71525C12.0374 3.27769 13.2185 2.09662 14.6561 2.09662C16.0936 2.09662 17.2747 3.27769 17.2747 4.71525C17.2747 4.88356 17.331 5.02777 17.4332 5.13003C17.5354 5.2323 17.6796 5.28868 17.8481 5.28868H19.8889C20.8651 5.28868 21.6706 5.95532 21.6706 6.75601V9.47939L7.64202 9.47975L7.64154 6.75601Z" fill="#68787B" stroke="#68787B" stroke-width="0.1"/>
</svg>
